<svg width="14" height="14" viewBox="0 0 14 14" fill="none" xmlns="http://www.w3.org/2000/svg">
<path d="M11.0833 14H2.91667C2.1434 13.9991 1.40208 13.6915 0.855295 13.1447C0.308514 12.5979 0.00092625 11.8566 0 11.0833L0 2.91667C0.00092625 2.1434 0.308514 1.40208 0.855295 0.855295C1.40208 0.308514 2.1434 0.00092625 2.91667 0L11.0833 0C11.8566 0.00092625 12.5979 0.308514 13.1447 0.855295C13.6915 1.40208 13.9991 2.1434 14 2.91667V11.0833C13.9991 11.8566 13.6915 12.5979 13.1447 13.1447C12.5979 13.6915 11.8566 13.9991 11.0833 14ZM2.91667 1.16667C2.45254 1.16667 2.00742 1.35104 1.67923 1.67923C1.35104 2.00742 1.16667 2.45254 1.16667 2.91667V11.0833C1.16667 11.5475 1.35104 11.9926 1.67923 12.3208C2.00742 12.649 2.45254 12.8333 2.91667 12.8333H11.0833C11.5475 12.8333 11.9926 12.649 12.3208 12.3208C12.649 11.9926 12.8333 11.5475 12.8333 11.0833V2.91667C12.8333 2.45254 12.649 2.00742 12.3208 1.67923C11.9926 1.35104 11.5475 1.16667 11.0833 1.16667H2.91667ZM5.4495 9.91958C5.20632 9.91877 4.96767 9.85377 4.75767 9.73117C4.5502 9.61242 4.37801 9.44069 4.2587 9.23355C4.1394 9.02641 4.07727 8.79129 4.07867 8.55225V5.44775C4.07847 5.20867 4.14115 4.97374 4.26042 4.76653C4.37969 4.55933 4.55136 4.38713 4.7582 4.26722C4.96504 4.14731 5.19978 4.08391 5.43886 4.08338C5.67794 4.08284 5.91296 4.14519 6.12033 4.26417L9.19917 5.80125C9.41303 5.9167 9.59212 6.08724 9.71789 6.29521C9.84365 6.50317 9.91151 6.74099 9.91443 6.98401C9.91734 7.22702 9.85521 7.4664 9.73447 7.67732C9.61373 7.88824 9.43878 8.06304 9.22775 8.18358L6.09175 9.751C5.89616 9.86256 5.67467 9.9207 5.4495 9.91958ZM5.43492 5.25292C5.40277 5.2529 5.37118 5.26135 5.34333 5.27742C5.31308 5.29424 5.28797 5.31899 5.27071 5.34899C5.25345 5.379 5.24467 5.41314 5.24533 5.44775V8.55225C5.24553 8.58635 5.25459 8.61981 5.27163 8.64934C5.28867 8.67888 5.3131 8.70348 5.34252 8.72072C5.37194 8.73796 5.40534 8.74725 5.43944 8.74768C5.47353 8.74811 5.50715 8.73966 5.537 8.72317L8.673 7.15517C8.69635 7.1369 8.71493 7.11324 8.72712 7.08621C8.73931 7.05918 8.74476 7.0296 8.743 7C8.74373 6.9653 8.73493 6.93107 8.71754 6.90104C8.70016 6.871 8.67486 6.84632 8.64442 6.82967L5.56792 5.29258C5.52781 5.26798 5.48195 5.2543 5.43492 5.25292Z" fill="#2178FF"/>
</svg>
