<svg width="16" height="7" viewBox="0 0 16 7" fill="none" xmlns="http://www.w3.org/2000/svg">
<path d="M0.5 3.05C0.251472 3.05 0.05 3.25147 0.05 3.5C0.05 3.74853 0.251472 3.95 0.5 3.95L0.5 3.05ZM15.8182 3.8182C15.9939 3.64246 15.9939 3.35754 15.8182 3.1818L12.9544 0.31802C12.7787 0.142284 12.4938 0.142284 12.318 0.31802C12.1423 0.493756 12.1423 0.778681 12.318 0.954417L14.8636 3.5L12.318 6.04559C12.1423 6.22132 12.1423 6.50625 12.318 6.68198C12.4938 6.85772 12.7787 6.85772 12.9544 6.68198L15.8182 3.8182ZM0.5 3.95L15.5 3.95L15.5 3.05L0.5 3.05L0.5 3.95Z" fill="white"/>
</svg>
