<svg width="111" height="30" viewBox="0 0 111 30" fill="none" xmlns="http://www.w3.org/2000/svg">
<path d="M0.597656 3.53891C0.597656 1.7171 2.11916 0.240234 3.99603 0.240234H107.307C109.184 0.240234 110.705 1.7171 110.705 3.53891V25.9699C110.705 27.7917 109.184 29.2686 107.307 29.2686H3.99603C2.11916 29.2686 0.597656 27.7917 0.597656 25.9699V3.53891Z" fill="#2178FF"/>
<path d="M24.4157 8.81678C23.8079 8.82245 23.2099 8.96486 22.6697 9.23266C22.1294 9.50043 21.6619 9.88614 21.3046 10.3589C20.9474 9.88614 20.4799 9.50043 19.9396 9.23266C19.3994 8.96486 18.8014 8.82245 18.1936 8.81678C17.0925 8.85907 16.0535 9.31876 15.304 10.0954C14.5544 10.872 14.1552 11.9023 14.1937 12.9611C14.1937 15.5542 16.9634 18.3302 19.2899 20.2027C19.8548 20.6593 20.5692 20.9097 21.3073 20.9097C22.0454 20.9097 22.7598 20.6593 23.3247 20.2027C25.6489 18.3302 28.4209 15.5542 28.4209 12.9611C28.4594 11.9015 28.0595 10.8704 27.3088 10.0936C26.5581 9.31688 25.5178 8.85773 24.4157 8.81678ZM22.1799 18.893C21.9348 19.0914 21.6247 19.2002 21.3044 19.2002C20.984 19.2002 20.6739 19.0914 20.4288 18.893C17.5963 16.6098 15.9714 14.4479 15.9714 12.9611C15.9337 12.3557 16.1458 11.7603 16.5619 11.3044C16.9779 10.8484 17.5643 10.5686 18.1936 10.5258C18.823 10.5686 19.4093 10.8484 19.8253 11.3044C20.2414 11.7603 20.4536 12.3557 20.4158 12.9611C20.4158 13.1877 20.5094 13.4051 20.6761 13.5653C20.8428 13.7256 21.0689 13.8156 21.3046 13.8156C21.5404 13.8156 21.7665 13.7256 21.9332 13.5653C22.0999 13.4051 22.1935 13.1877 22.1935 12.9611C22.1557 12.3557 22.3679 11.7603 22.7839 11.3044C23.2 10.8484 23.7864 10.5686 24.4157 10.5258C25.045 10.5686 25.6314 10.8484 26.0474 11.3044C26.4635 11.7603 26.6756 12.3557 26.6379 12.9611C26.6379 14.4479 25.013 16.6098 22.1799 18.893Z" fill="white"/>
<path d="M42.0027 21.9154V20.2379H33.8097V9.5961H35.6063V18.6564H40.8099V9.83998H42.6066V18.6564H43.7994V21.9154H42.0027Z" fill="white"/>
<path d="M43.7994 20.2379L47.184 9.5961H49.8156L53.2002 20.2379H51.3513L48.2798 10.6898H48.6824L45.6482 20.2379H43.7994ZM45.6855 17.9321V16.2694H51.3215V17.9321H45.6855Z" fill="white"/>
<path d="M62.7187 20.2379H60.8997V12.7369L55.9197 20.2379H54.1007V9.5961H55.9197V17.0971L60.8997 9.5961H62.7187V20.2379Z" fill="white"/>
<path d="M63.7814 22.0115V18.5677C64.1293 18.5677 64.42 18.4815 64.6536 18.309C64.8872 18.1366 65.0736 17.8977 65.2127 17.5922C65.3569 17.2867 65.4687 16.932 65.5482 16.528C65.6277 16.1191 65.6899 15.6855 65.7346 15.2274C65.7893 14.6214 65.8365 14.0277 65.8762 13.4463C65.916 12.8601 65.9533 12.2541 65.9881 11.6284C66.0278 10.9978 66.0726 10.3154 66.1223 9.58132L73.1225 9.5961V18.5677H73.9277V22.0115H72.1385V20.2379H65.578V22.0115H63.7814ZM66.577 18.5677H71.3259V11.2663L67.7624 11.2515C67.7276 11.7688 67.6978 12.2516 67.6729 12.6999C67.653 13.1434 67.6257 13.5941 67.5909 14.0523C67.5611 14.5105 67.5188 15.0106 67.4642 15.5525C67.4145 16.0846 67.3598 16.528 67.3001 16.8827C67.2455 17.2375 67.1635 17.5454 67.0541 17.8065C66.9448 18.0627 66.7858 18.3164 66.577 18.5677Z" fill="white"/>
<path d="M75.1198 20.2379V9.5961H76.7375L80.4501 17.134L84.1627 9.5961H85.7804V20.2379H84.103V13.4168L80.8079 20.2379H80.0923L76.8046 13.4168V20.2379H75.1198Z" fill="white"/>
<path d="M91.9676 20.4596C90.8941 20.4596 89.9746 20.228 89.2093 19.7649C88.4439 19.2968 87.8549 18.6465 87.4424 17.8139C87.0349 16.9813 86.8311 16.0156 86.8311 14.917C86.8311 13.8183 87.0349 12.8527 87.4424 12.0201C87.8549 11.1874 88.4439 10.5396 89.2093 10.0765C89.9746 9.60842 90.8941 9.3744 91.9676 9.3744C93.0411 9.3744 93.9606 9.60842 94.726 10.0765C95.4963 10.5396 96.0853 11.1874 96.4928 12.0201C96.9053 12.8527 97.1116 13.8183 97.1116 14.917C97.1116 16.0156 96.9053 16.9813 96.4928 17.8139C96.0853 18.6465 95.4963 19.2968 94.726 19.7649C93.9606 20.228 93.0411 20.4596 91.9676 20.4596ZM91.9676 18.782C92.6883 18.7869 93.2872 18.6293 93.7643 18.309C94.2464 17.9888 94.6067 17.538 94.8453 16.9566C95.0888 16.3753 95.2106 15.6954 95.2106 14.917C95.2106 14.1386 95.0888 13.4636 94.8453 12.8921C94.6067 12.3157 94.2464 11.8673 93.7643 11.5471C93.2872 11.2269 92.6883 11.0618 91.9676 11.052C91.247 11.047 90.6481 11.2047 90.171 11.5249C89.6938 11.8452 89.3335 12.296 89.09 12.8773C88.8514 13.4587 88.7321 14.1386 88.7321 14.917C88.7321 15.6954 88.8514 16.3728 89.09 16.9493C89.3285 17.5208 89.6864 17.9666 90.1635 18.2869C90.6456 18.6071 91.247 18.7721 91.9676 18.782Z" fill="white"/>
</svg>
