<svg width="119" height="209" viewBox="0 0 119 209" fill="none" xmlns="http://www.w3.org/2000/svg">
<path d="M89.069 166.592L85.1298 165.897L85.3587 164.599C85.5408 163.566 85.3004 162.503 84.6905 161.642C84.0805 160.781 83.1509 160.194 82.1061 160.01L79.48 159.547C78.4352 159.363 77.3609 159.597 76.4934 160.197C75.6259 160.797 75.0362 161.714 74.854 162.747L74.6251 164.045L70.6859 163.351C68.9449 163.046 67.1555 163.436 65.7102 164.436C64.2648 165.436 63.2815 166.963 62.976 168.684L61.1448 179.069C60.8435 180.79 61.245 182.562 62.2612 183.996C63.2775 185.43 64.8255 186.408 66.5657 186.717L84.9488 189.959C86.6898 190.264 88.4792 189.873 89.9245 188.874C91.3699 187.874 92.3532 186.346 92.6587 184.626L94.4899 174.241C94.7912 172.519 94.3897 170.747 93.3735 169.314C92.3573 167.88 90.8092 166.901 89.069 166.592ZM77.4802 163.21C77.5409 162.866 77.7375 162.56 78.0267 162.36C78.3158 162.16 78.6739 162.082 79.0222 162.144L81.6483 162.607C81.9966 162.668 82.3065 162.864 82.5098 163.151C82.7131 163.437 82.7932 163.792 82.7325 164.136L82.5036 165.434L77.2513 164.508L77.4802 163.21ZM90.0325 184.163C89.8504 185.196 89.2607 186.113 88.3932 186.713C87.5257 187.313 86.4513 187.547 85.4066 187.363L67.0235 184.121C65.9788 183.937 65.0492 183.35 64.4392 182.489C63.8292 181.629 63.5889 180.565 63.771 179.532L65.6022 169.147C65.7843 168.114 66.374 167.197 67.2415 166.596C68.1091 165.996 69.1834 165.763 70.2281 165.947L88.6112 169.188C89.6559 169.373 90.5856 169.96 91.1955 170.82C91.8055 171.681 92.0459 172.745 91.8637 173.777L90.0325 184.163ZM83.0697 177.581C83.009 177.925 82.8124 178.231 82.5232 178.431C82.234 178.631 81.8759 178.709 81.5277 178.648L78.9015 178.184L78.4437 180.781C78.383 181.125 78.1865 181.431 77.8973 181.631C77.6081 181.831 77.25 181.909 76.9018 181.847C76.5535 181.786 76.2436 181.59 76.0403 181.303C75.837 181.017 75.7569 180.662 75.8176 180.318L76.2754 177.721L73.6492 177.258C73.301 177.197 72.9911 177.001 72.7878 176.714C72.5845 176.428 72.5043 176.073 72.5651 175.729C72.6258 175.384 72.8223 175.079 73.1115 174.879C73.4007 174.678 73.7588 174.601 74.107 174.662L76.7332 175.125L77.191 172.529C77.2517 172.184 77.4483 171.879 77.7374 171.679C78.0266 171.479 78.3847 171.401 78.733 171.462C79.0812 171.524 79.3911 171.719 79.5944 172.006C79.7977 172.293 79.8778 172.648 79.8171 172.992L79.3593 175.588L81.9855 176.051C82.3337 176.113 82.6436 176.308 82.8469 176.595C83.0503 176.882 83.1304 177.237 83.0697 177.581Z" fill="#2178FF"/>
<path d="M30.2022 5.63709C29.8829 4.88871 29.4148 4.21309 28.8262 3.6513C28.2377 3.08951 27.541 2.6533 26.7785 2.3692C26.0161 2.0851 25.2038 1.95904 24.391 1.99869C23.5783 2.03833 22.7821 2.24286 22.0509 2.59984L19.6326 3.77708C19.0202 4.07624 18.4842 4.51143 18.0657 5.0494C17.4885 4.68701 16.836 4.46136 16.1582 4.38972L13.4831 4.11058C12.6746 4.02629 11.8574 4.10716 11.081 4.34828C10.3047 4.5894 9.58549 4.98574 8.96701 5.51324C8.34853 6.04075 7.84369 6.68842 7.48315 7.41694C7.1226 8.14545 6.91387 8.93963 6.86962 9.75125C5.22503 10.3599 3.84572 11.5256 2.97146 13.0456C2.0972 14.5657 1.78325 16.344 2.08419 18.0714L3.90732 28.4108C4.25491 30.3684 5.36482 32.1082 6.9936 33.2486C8.62237 34.3889 10.637 34.8367 12.5956 34.4938L21.4589 32.931L21.9798 35.8851L17.5481 36.6665C17.1564 36.7356 16.8081 36.9575 16.5799 37.2833C16.3517 37.6092 16.2623 38.0123 16.3314 38.4041C16.4004 38.7958 16.6223 39.144 16.9482 39.3722C17.2741 39.6004 17.6772 39.6897 18.069 39.6206L29.8867 37.5369C30.2785 37.4678 30.6268 37.2459 30.855 36.9201C31.0832 36.5942 31.1726 36.1911 31.1035 35.7993C31.0344 35.4076 30.8125 35.0593 30.4867 34.8312C30.1608 34.603 29.7576 34.5137 29.3658 34.5827L24.9342 35.3642L24.4133 32.41L33.2766 30.8472C35.2343 30.4996 36.9743 29.3897 38.1148 27.761C39.2554 26.1324 39.7033 24.1179 39.3604 22.1595L37.5373 11.8201C37.2298 10.0949 36.3277 8.53187 34.9878 7.40241C33.6479 6.27295 31.9547 5.64837 30.2022 5.63709ZM20.124 8.08426C20.0676 7.76344 20.1172 7.43297 20.2652 7.1428C20.4133 6.85264 20.6518 6.61856 20.9447 6.47596L23.3645 5.29845C23.7821 5.09514 24.2411 4.99155 24.7055 4.99584C25.1699 5.00012 25.627 5.11216 26.0407 5.32312C26.4545 5.53409 26.8136 5.83823 27.0897 6.21158C27.3659 6.58493 27.5516 7.0173 27.6322 7.47464L28.6579 13.2913C28.7688 13.9327 28.6688 14.5927 28.3728 15.1724C28.0768 15.7521 27.6008 16.2202 27.0162 16.5064L22.0362 18.9289L20.124 8.08426ZM10.6707 8.02863C10.9868 7.69 11.3773 7.42946 11.8113 7.26756C12.2454 7.10566 12.7111 7.04682 13.1717 7.09571L15.8483 7.37459C16.1723 7.40841 16.4765 7.5468 16.7149 7.76882C16.9533 7.99084 17.1129 8.28443 17.1696 8.6052L19.0818 19.4498L13.5736 18.8767C12.9263 18.8077 12.3189 18.5306 11.8425 18.0871C11.3661 17.6436 11.0464 17.0576 10.9313 16.417L9.90568 10.6003C9.82326 10.1417 9.84955 9.67014 9.98241 9.22352C10.1153 8.7769 10.351 8.36765 10.6707 8.02863ZM36.406 22.6805C36.6132 23.8557 36.345 25.0651 35.6605 26.0427C34.9759 27.0202 33.931 27.6858 32.7557 27.8931L12.0747 31.5397C10.8994 31.7469 9.68985 31.4788 8.71223 30.7944C7.7346 30.1099 7.06897 29.0651 6.86174 27.8899L5.03862 17.5505C4.88138 16.6366 5.01037 15.6964 5.40793 14.8586C5.80549 14.0208 6.45222 13.3263 7.25962 12.8701L7.97689 16.9379C8.20667 18.2199 8.846 19.3928 9.79896 20.2806C10.7519 21.1684 11.9671 21.7232 13.2622 21.8619L18.6171 22.4208C20.2904 22.594 21.9788 22.2963 23.4919 21.5613L28.3327 19.2045C29.5017 18.6308 30.4531 17.6937 31.0444 16.5337C31.6357 15.3736 31.8349 14.0532 31.6123 12.7704L30.895 8.70254C31.8098 8.8551 32.655 9.28655 33.3152 9.93784C33.9753 10.5891 34.418 11.4285 34.5828 12.341L36.406 22.6805Z" fill="#2178FF"/>
<path d="M10 191L11.0182 198.982L19 200L11.0182 201.019L10 209L8.98177 201.019L1 200L8.98177 198.982L10 191Z" fill="#2178FF"/>
<path d="M110 7.00037L110.566 11.4347L115 12.0004L110.566 12.5661L110 17.0004L109.434 12.5661L105 12.0004L109.434 11.4347L110 7.00037Z" fill="#2178FF"/>
<path d="M97 17.0004L98.3576 27.6427L109 29.0004L98.3576 30.358L97 41.0004L95.6424 30.358L85 29.0004L95.6424 27.6427L97 17.0004Z" fill="#ECECEC"/>
<path d="M102 186L102.679 191.322L108 192L102.679 192.679L102 198L101.321 192.679L96 192L101.321 191.322L102 186Z" fill="#ECECEC"/>
<path d="M110 75.0004L111.018 82.9821L119 84.0004L111.018 85.0186L110 93.0004L108.982 85.0186L101 84.0004L108.982 82.9821L110 75.0004Z" fill="#2178FF"/>
<path d="M21 103L22.9233 118.077L38 120L22.9233 121.924L21 137L19.0767 121.924L4 120L19.0767 118.077L21 103Z" fill="#2178FF"/>
</svg>
