<svg width="48" height="48" viewBox="0 0 48 48" fill="none" xmlns="http://www.w3.org/2000/svg">
<path d="M29.646 23.416C29.7504 23.4731 29.8371 23.5577 29.8967 23.6607C29.9563 23.7637 29.9865 23.881 29.984 24C29.99 24.1015 29.9714 24.2029 29.9296 24.2956C29.8878 24.3882 29.8241 24.4694 29.744 24.532L19 29.908C18.8977 29.9646 18.7824 29.9935 18.6655 29.992C18.5486 29.9906 18.4341 29.9587 18.3332 29.8996C18.2324 29.8405 18.1486 29.7562 18.0902 29.6549C18.0318 29.5536 18.0007 29.4389 18 29.322V18.678C17.9977 18.5593 18.0278 18.4423 18.087 18.3394C18.1462 18.2365 18.2323 18.1517 18.336 18.094C18.4315 18.0389 18.5398 18.01 18.65 18.01C18.8113 18.0147 18.9685 18.0616 19.106 18.146L29.646 23.416ZM48 10V38C47.9968 40.6512 46.9422 43.1929 45.0676 45.0676C43.1929 46.9422 40.6512 47.9968 38 48H10C7.34881 47.9968 4.80712 46.9422 2.93244 45.0676C1.05776 43.1929 0.00317572 40.6512 0 38V10C0.00317572 7.34881 1.05776 4.80712 2.93244 2.93244C4.80712 1.05776 7.34881 0.00317572 10 0H38C40.6512 0.00317572 43.1929 1.05776 45.0676 2.93244C46.9422 4.80712 47.9968 7.34881 48 10ZM33.984 24C33.9847 23.1573 33.7571 22.3302 33.3254 21.6065C32.8936 20.8828 32.2739 20.2897 31.532 19.89L20.976 14.62C20.265 14.2121 19.4592 13.9983 18.6395 14.0001C17.8198 14.002 17.015 14.2194 16.3058 14.6305C15.5967 15.0416 15.0081 15.632 14.5992 16.3424C14.1902 17.0528 13.9753 17.8583 13.976 18.678V29.322C13.9712 30.1416 14.1842 30.9477 14.5933 31.6579C15.0023 32.3681 15.5927 32.9569 16.304 33.364C17.024 33.7844 17.8423 34.0072 18.676 34.01C19.4473 34.0135 20.206 33.8142 20.876 33.432L31.628 28.058C32.3469 27.6532 32.9444 27.0634 33.3587 26.3499C33.773 25.6364 33.9889 24.825 33.984 24Z" fill="white"/>
</svg>
