<svg width="13" height="13" viewBox="0 0 13 13" fill="none" xmlns="http://www.w3.org/2000/svg">
<path d="M6.50044 1.08345C7.21901 1.08581 7.92998 1.23065 8.59221 1.5096C9.25443 1.78855 9.85476 2.19606 10.3584 2.70856H8.12555V3.79197H10.9115C11.1782 3.79168 11.4339 3.6856 11.6225 3.49702C11.8111 3.30843 11.9172 3.05273 11.9175 2.78602V4.74414e-05H10.8341V1.66741C9.90096 0.82715 8.74417 0.275587 7.50389 0.0795741C6.26362 -0.116439 4.99311 0.051513 3.84637 0.563073C2.69963 1.07463 1.7259 1.90784 1.04319 2.96169C0.360481 4.01555 -0.00188738 5.24481 7.39278e-06 6.50048H1.08341C1.08499 5.06428 1.65622 3.68735 2.67176 2.6718C3.68731 1.65626 5.06424 1.08503 6.50044 1.08345Z" fill="#2178FF"/>
<path d="M11.9171 6.50049C11.9186 7.57595 11.5996 8.62747 11.0007 9.52074C10.4018 10.414 9.55018 11.1085 8.5547 11.5155C7.55922 11.9225 6.46501 12.0235 5.41185 11.8056C4.35868 11.5878 3.39435 11.0609 2.64203 10.2924H4.87493V9.209H2.08895C1.82225 9.20929 1.56655 9.31536 1.37796 9.50395C1.18937 9.69254 1.08329 9.94824 1.08301 10.2149V13.0009H2.16641V11.3336C3.09951 12.1738 4.2563 12.7254 5.49658 12.9214C6.73685 13.1174 8.00736 12.9495 9.1541 12.4379C10.3008 11.9263 11.2746 11.0931 11.9573 10.0393C12.64 8.98542 13.0024 7.75616 13.0005 6.50049H11.9171Z" fill="#2178FF"/>
</svg>
